<svg width="38" height="37" viewBox="0 0 38 37" fill="none" xmlns="http://www.w3.org/2000/svg">
<mask id="path-1-inside-1_201_328" fill="white">
<path d="M8.35472 20.2233C7.21134 20.7606 5.79381 20.2873 5.46956 19.0811C4.93513 17.0932 4.97658 14.9869 5.61304 12.9966C6.48155 10.2806 8.39294 7.98398 10.9592 6.57286C13.5255 5.16175 16.5544 4.7419 19.431 5.39853C22.3077 6.05517 24.8166 7.73908 26.4484 10.1085C28.0802 12.4779 28.7127 15.3552 28.2175 18.1564C27.7223 20.9576 26.1365 23.4727 23.782 25.1913C21.4275 26.9099 18.4807 27.7032 15.5398 27.41C13.3869 27.1955 11.3553 26.4105 9.6611 25.1632C8.63086 24.4048 8.73258 22.958 9.69719 22.1539C10.6517 21.3583 12.0939 21.5133 13.2019 22.1323C14.0565 22.6098 15.0138 22.9132 16.0143 23.0129C17.7931 23.1902 19.5754 22.7104 20.9995 21.671C22.4236 20.6315 23.3828 19.1102 23.6823 17.416C23.9818 15.7217 23.5993 13.9814 22.6123 12.5483C21.6253 11.1152 20.1078 10.0967 18.3679 9.69955C16.628 9.30239 14.796 9.55633 13.2439 10.4098C11.6917 11.2633 10.5356 12.6524 10.0103 14.2951C9.71635 15.2143 9.63223 16.1744 9.75278 17.1123C9.91083 18.3419 9.4937 19.6881 8.35472 20.2233Z"/>
</mask>
<path d="M8.35472 20.2233C7.21134 20.7606 5.79381 20.2873 5.46956 19.0811C4.93513 17.0932 4.97658 14.9869 5.61304 12.9966C6.48155 10.2806 8.39294 7.98398 10.9592 6.57286C13.5255 5.16175 16.5544 4.7419 19.431 5.39853C22.3077 6.05517 24.8166 7.73908 26.4484 10.1085C28.0802 12.4779 28.7127 15.3552 28.2175 18.1564C27.7223 20.9576 26.1365 23.4727 23.782 25.1913C21.4275 26.9099 18.4807 27.7032 15.5398 27.41C13.3869 27.1955 11.3553 26.4105 9.6611 25.1632C8.63086 24.4048 8.73258 22.958 9.69719 22.1539C10.6517 21.3583 12.0939 21.5133 13.2019 22.1323C14.0565 22.6098 15.0138 22.9132 16.0143 23.0129C17.7931 23.1902 19.5754 22.7104 20.9995 21.671C22.4236 20.6315 23.3828 19.1102 23.6823 17.416C23.9818 15.7217 23.5993 13.9814 22.6123 12.5483C21.6253 11.1152 20.1078 10.0967 18.3679 9.69955C16.628 9.30239 14.796 9.55633 13.2439 10.4098C11.6917 11.2633 10.5356 12.6524 10.0103 14.2951C9.71635 15.2143 9.63223 16.1744 9.75278 17.1123C9.91083 18.3419 9.4937 19.6881 8.35472 20.2233Z" fill="#F7F7F7" stroke="#E0E0E0" stroke-width="2" mask="url(#path-1-inside-1_201_328)"/>
<g filter="url(#filter0_d_201_328)">
<path d="M9.08866 11.0952C8.04036 10.3855 6.5942 10.6065 6.07839 11.7235C5.30615 13.3958 4.96766 15.2355 5.10908 17.0823C5.30674 19.6635 6.42962 22.099 8.2864 23.9738C10.1432 25.8486 12.619 27.0467 15.2919 27.364C17.9649 27.6812 20.6696 27.098 22.9452 25.7137C25.2209 24.3295 26.9267 22.2297 27.772 19.7723C28.6172 17.3149 28.5497 14.6519 27.5808 12.237C26.612 9.82208 24.8018 7.8047 22.4586 6.5286C20.7817 5.61534 18.9061 5.12218 17.0024 5.0776C15.7358 5.04795 14.9079 6.22091 15.1283 7.44285C15.3528 8.68743 16.5934 9.49304 17.8698 9.6998C18.6595 9.82771 19.4259 10.0872 20.1329 10.4723C21.5266 11.2313 22.6034 12.4312 23.1796 13.8676C23.7559 15.304 23.7961 16.888 23.2933 18.3497C22.7905 19.8114 21.7759 21.0603 20.4224 21.8837C19.0688 22.707 17.46 23.0539 15.8701 22.8652C14.2802 22.6765 12.8076 21.9639 11.7032 20.8487C10.5988 19.7336 9.93092 18.285 9.81335 16.7497C9.75479 15.9849 9.83457 15.2223 10.0434 14.4938C10.393 13.2745 10.1696 11.8271 9.08866 11.0952Z" fill="#009F42"/>
</g>
<defs>
<filter id="filter0_d_201_328" x="0.0776367" y="0.0771484" width="37.2825" height="36.3711" filterUnits="userSpaceOnUse" color-interpolation-filters="sRGB">
<feFlood flood-opacity="0" result="BackgroundImageFix"/>
<feColorMatrix in="SourceAlpha" type="matrix" values="0 0 0 0 0 0 0 0 0 0 0 0 0 0 0 0 0 0 127 0" result="hardAlpha"/>
<feMorphology radius="1" operator="dilate" in="SourceAlpha" result="effect1_dropShadow_201_328"/>
<feOffset dx="2" dy="2"/>
<feGaussianBlur stdDeviation="3"/>
<feColorMatrix type="matrix" values="0 0 0 0 0 0 0 0 0 0.623529 0 0 0 0 0.258824 0 0 0 0.31 0"/>
<feBlend mode="normal" in2="BackgroundImageFix" result="effect1_dropShadow_201_328"/>
<feBlend mode="normal" in="SourceGraphic" in2="effect1_dropShadow_201_328" result="shape"/>
</filter>
</defs>
</svg>
