<svg width="33" height="37" viewBox="0 0 33 37" fill="none" xmlns="http://www.w3.org/2000/svg">
<mask id="path-1-inside-1_201_509" fill="white">
<path d="M10.8716 6.49038C16.3234 3.45813 23.2947 5.2576 26.4423 10.5096C29.59 15.7616 27.722 22.4774 22.2702 25.5096C16.8183 28.5419 9.84702 26.7424 6.69938 21.4904C3.55175 16.2384 5.41969 9.52263 10.8716 6.49038ZM20.018 21.7518C23.3155 19.9178 24.4453 15.8558 22.5415 12.6792C20.6377 9.50259 16.4212 8.4142 13.1237 10.2482C9.82621 12.0822 8.69641 16.1442 10.6002 19.3208C12.504 22.4974 16.7205 23.5858 20.018 21.7518Z"/>
</mask>
<path d="M10.8716 6.49038C16.3234 3.45813 23.2947 5.2576 26.4423 10.5096C29.59 15.7616 27.722 22.4774 22.2702 25.5096C16.8183 28.5419 9.84702 26.7424 6.69938 21.4904C3.55175 16.2384 5.41969 9.52263 10.8716 6.49038ZM20.018 21.7518C23.3155 19.9178 24.4453 15.8558 22.5415 12.6792C20.6377 9.50259 16.4212 8.4142 13.1237 10.2482C9.82621 12.0822 8.69641 16.1442 10.6002 19.3208C12.504 22.4974 16.7205 23.5858 20.018 21.7518Z" fill="#F7F7F7" stroke="#E0E0E0" stroke-width="2" mask="url(#path-1-inside-1_201_509)"/>
<g filter="url(#filter0_d_201_509)">
<path d="M22.5879 22.9194C23.4374 23.8204 23.4684 25.2467 22.4926 25.9108C21.5659 26.5416 20.5426 27.0164 19.4582 27.3141C17.6921 27.7989 15.8226 27.798 14.0275 27.3114C12.2325 26.8248 10.5715 25.8687 9.20283 24.5341C7.83411 23.1994 6.80312 21.5307 6.20795 19.6867C5.61278 17.8426 5.47323 15.8845 5.80258 13.9988C6.13193 12.1131 6.91922 10.3624 8.08955 8.91328C9.25987 7.4642 10.7743 6.36495 12.4887 5.72012C13.5026 5.33877 14.5665 5.12386 15.6439 5.0787C16.8773 5.02699 17.75 6.24793 17.5851 7.49983C17.4216 8.74176 16.2809 9.5291 15.0836 9.75549C14.7427 9.81995 14.4071 9.91382 14.0802 10.0368C13.0604 10.4203 12.1597 11.0742 11.4635 11.9361C10.7674 12.798 10.2991 13.8393 10.1032 14.961C9.90734 16.0826 9.99035 17.2473 10.3444 18.3441C10.6984 19.441 11.3116 20.4335 12.1257 21.2274C12.9398 22.0212 13.9278 22.5899 14.9955 22.8793C16.0632 23.1688 17.1752 23.1693 18.2256 22.8809C18.5648 22.7878 18.8939 22.6656 19.2099 22.5161C20.3069 21.997 21.7143 21.9928 22.5879 22.9194Z" fill="#FBB500"/>
</g>
<defs>
<filter id="filter0_d_201_509" x="0.628418" y="0.0771484" width="31.5964" height="36.5999" filterUnits="userSpaceOnUse" color-interpolation-filters="sRGB">
<feFlood flood-opacity="0" result="BackgroundImageFix"/>
<feColorMatrix in="SourceAlpha" type="matrix" values="0 0 0 0 0 0 0 0 0 0 0 0 0 0 0 0 0 0 127 0" result="hardAlpha"/>
<feMorphology radius="1" operator="dilate" in="SourceAlpha" result="effect1_dropShadow_201_509"/>
<feOffset dx="2" dy="2"/>
<feGaussianBlur stdDeviation="3"/>
<feColorMatrix type="matrix" values="0 0 0 0 1 0 0 0 0 0.756863 0 0 0 0 0.027451 0 0 0 0.31 0"/>
<feBlend mode="normal" in2="BackgroundImageFix" result="effect1_dropShadow_201_509"/>
<feBlend mode="normal" in="SourceGraphic" in2="effect1_dropShadow_201_509" result="shape"/>
</filter>
</defs>
</svg>
