<svg width="34" height="31" viewBox="0 0 34 31" fill="none" xmlns="http://www.w3.org/2000/svg">
<mask id="path-1-inside-1_201_477" fill="white">
<path d="M9.66366 7.07601C14.7822 4.22422 21.3272 5.9166 24.2824 10.856C27.2376 15.7955 25.4838 22.1115 20.3653 24.9633C15.2468 27.8151 8.70176 26.1227 5.74658 21.1833C2.7914 16.2438 4.54513 9.9278 9.66366 7.07601ZM18.2509 21.4291C21.3468 19.7043 22.4075 15.8841 20.6201 12.8965C18.8327 9.90895 14.874 8.88534 11.7781 10.6102C8.68223 12.3351 7.62151 16.1553 9.40891 19.1428C11.1963 22.1304 15.155 23.154 18.2509 21.4291Z"/>
</mask>
<path d="M9.66366 7.07601C14.7822 4.22422 21.3272 5.9166 24.2824 10.856C27.2376 15.7955 25.4838 22.1115 20.3653 24.9633C15.2468 27.8151 8.70176 26.1227 5.74658 21.1833C2.7914 16.2438 4.54513 9.9278 9.66366 7.07601ZM18.2509 21.4291C21.3468 19.7043 22.4075 15.8841 20.6201 12.8965C18.8327 9.90895 14.874 8.88534 11.7781 10.6102C8.68223 12.3351 7.62151 16.1553 9.40891 19.1428C11.1963 22.1304 15.155 23.154 18.2509 21.4291Z" fill="#F7F7F7" stroke="#E0E0E0" stroke-width="2" mask="url(#path-1-inside-1_201_477)"/>
<g filter="url(#filter0_d_201_477)">
<path d="M14.5608 7.41211C14.5013 6.23454 15.3497 5.17712 16.4591 5.28809C18.2003 5.46225 19.8599 6.10504 21.2711 7.17049C22.6606 8.21965 23.7436 9.62913 24.4315 11.2555C24.8932 12.3473 24.1713 13.5423 23.0595 13.8401C21.9187 14.1456 20.8107 13.3684 20.1765 12.3432C19.7949 11.7261 19.3059 11.1847 18.7278 10.7482C18.1339 10.2998 17.466 9.97722 16.7592 9.79022C15.6451 9.49543 14.6222 8.6297 14.5608 7.41211Z" fill="#C62828"/>
</g>
<defs>
<filter id="filter0_d_201_477" x="9.55786" y="0.280029" width="24.0154" height="22.6273" filterUnits="userSpaceOnUse" color-interpolation-filters="sRGB">
<feFlood flood-opacity="0" result="BackgroundImageFix"/>
<feColorMatrix in="SourceAlpha" type="matrix" values="0 0 0 0 0 0 0 0 0 0 0 0 0 0 0 0 0 0 127 0" result="hardAlpha"/>
<feMorphology radius="1" operator="dilate" in="SourceAlpha" result="effect1_dropShadow_201_477"/>
<feOffset dx="2" dy="2"/>
<feGaussianBlur stdDeviation="3"/>
<feColorMatrix type="matrix" values="0 0 0 0 0.776471 0 0 0 0 0.156863 0 0 0 0 0.156863 0 0 0 0.31 0"/>
<feBlend mode="normal" in2="BackgroundImageFix" result="effect1_dropShadow_201_477"/>
<feBlend mode="normal" in="SourceGraphic" in2="effect1_dropShadow_201_477" result="shape"/>
</filter>
</defs>
</svg>
